<mxfile host="app.diagrams.net" modified="2023-08-15T00:22:14.134Z" agent="Mozilla/5.0 (Windows NT 10.0; Win64; x64) AppleWebKit/537.36 (KHTML, like Gecko) Chrome/115.0.0.0 Safari/537.36 Edg/115.0.1901.203" etag="IGaOuk-g0cQuSB4sa70J" version="21.6.8" type="github">
  <diagram name="Page-1" id="C-AgzObuSpGEJH9MZPCi">
    <mxGraphModel dx="1619" dy="764" grid="1" gridSize="10" guides="1" tooltips="1" connect="1" arrows="1" fold="1" page="1" pageScale="1" pageWidth="1169" pageHeight="827" math="0" shadow="0">
      <root>
        <mxCell id="0" />
        <mxCell id="1" parent="0" />
        <mxCell id="tQHCMrDT34ir8bHBtCiH-1" value="" style="rounded=1;whiteSpace=wrap;html=1;" vertex="1" parent="1">
          <mxGeometry x="120" y="200" width="630" height="550" as="geometry" />
        </mxCell>
        <mxCell id="tQHCMrDT34ir8bHBtCiH-2" value="" style="image;sketch=0;aspect=fixed;html=1;points=[];align=center;fontSize=12;image=img/lib/mscae/Key.svg;" vertex="1" parent="1">
          <mxGeometry x="170" y="180" width="31" height="50" as="geometry" />
        </mxCell>
        <mxCell id="tQHCMrDT34ir8bHBtCiH-3" value="" style="rounded=1;whiteSpace=wrap;html=1;" vertex="1" parent="1">
          <mxGeometry x="160" y="310" width="250" height="420" as="geometry" />
        </mxCell>
        <mxCell id="tQHCMrDT34ir8bHBtCiH-4" value="" style="rounded=1;whiteSpace=wrap;html=1;" vertex="1" parent="1">
          <mxGeometry x="460" y="310" width="250" height="420" as="geometry" />
        </mxCell>
        <mxCell id="tQHCMrDT34ir8bHBtCiH-5" value="rg-mdp-infra" style="image;aspect=fixed;html=1;points=[];align=center;fontSize=12;image=img/lib/azure2/general/Resource_Groups.svg;" vertex="1" parent="1">
          <mxGeometry x="190" y="290" width="42.5" height="40" as="geometry" />
        </mxCell>
        <mxCell id="tQHCMrDT34ir8bHBtCiH-6" value="rg-mdp-app" style="image;aspect=fixed;html=1;points=[];align=center;fontSize=12;image=img/lib/azure2/general/Resource_Groups.svg;" vertex="1" parent="1">
          <mxGeometry x="490" y="290" width="42.5" height="40" as="geometry" />
        </mxCell>
        <mxCell id="tQHCMrDT34ir8bHBtCiH-10" value="&lt;b&gt;SG-Azure-MDP-Data-Analyst&lt;/b&gt;&lt;br&gt;&lt;br&gt;- Data Factory Reader&lt;br&gt;- Policy Reader" style="rounded=1;whiteSpace=wrap;html=1;" vertex="1" parent="1">
          <mxGeometry x="201" y="580" width="189" height="120" as="geometry" />
        </mxCell>
        <mxCell id="tQHCMrDT34ir8bHBtCiH-7" value="" style="image;aspect=fixed;html=1;points=[];align=center;fontSize=12;image=img/lib/azure2/databases/Data_Factory.svg;" vertex="1" parent="1">
          <mxGeometry x="220" y="550" width="50" height="50" as="geometry" />
        </mxCell>
        <mxCell id="tQHCMrDT34ir8bHBtCiH-11" value="&lt;b&gt;SG-Azure-MDP-Engineer&lt;/b&gt;&lt;br&gt;&lt;br&gt;- Blob Storage Contirbutor&lt;br&gt;-&amp;nbsp;Key Vault Secrets Officer" style="rounded=1;whiteSpace=wrap;html=1;" vertex="1" parent="1">
          <mxGeometry x="510" y="590" width="189" height="120" as="geometry" />
        </mxCell>
        <mxCell id="tQHCMrDT34ir8bHBtCiH-9" value="" style="image;aspect=fixed;html=1;points=[];align=center;fontSize=12;image=img/lib/azure2/security/Key_Vaults.svg;" vertex="1" parent="1">
          <mxGeometry x="530" y="550" width="55" height="55" as="geometry" />
        </mxCell>
        <mxCell id="tQHCMrDT34ir8bHBtCiH-14" value="SG-Azure-MDP-Data-Developers&lt;br&gt;&lt;br&gt;- Blob Storage Contributor&lt;br&gt;- Key Vault Secrets Officer" style="rounded=1;whiteSpace=wrap;html=1;" vertex="1" parent="1">
          <mxGeometry x="510" y="440" width="189" height="110" as="geometry" />
        </mxCell>
        <mxCell id="tQHCMrDT34ir8bHBtCiH-13" value="&lt;b&gt;SG-Azure-MDP-Engineer&lt;/b&gt;&lt;br&gt;&lt;br&gt;- Blob Storage Contirbutor&lt;br style=&quot;border-color: var(--border-color);&quot;&gt;-&amp;nbsp;Key Vault Secrets Officer" style="rounded=1;whiteSpace=wrap;html=1;" vertex="1" parent="1">
          <mxGeometry x="201" y="440" width="189" height="110" as="geometry" />
        </mxCell>
        <mxCell id="tQHCMrDT34ir8bHBtCiH-12" value="" style="image;aspect=fixed;html=1;points=[];align=center;fontSize=12;image=img/lib/azure2/storage/Storage_Accounts.svg;" vertex="1" parent="1">
          <mxGeometry x="212.5" y="414" width="57.5" height="46" as="geometry" />
        </mxCell>
        <mxCell id="tQHCMrDT34ir8bHBtCiH-15" value="" style="image;aspect=fixed;html=1;points=[];align=center;fontSize=12;image=img/lib/azure2/storage/Storage_Accounts.svg;" vertex="1" parent="1">
          <mxGeometry x="527" y="414" width="57.5" height="46" as="geometry" />
        </mxCell>
      </root>
    </mxGraphModel>
  </diagram>
</mxfile>
